<?xml version="1.0" encoding="UTF-8"?>
<!DOCTYPE svg PUBLIC "-//W3C//DTD SVG 1.1//EN" "http://www.w3.org/Graphics/SVG/1.1/DTD/svg11.dtd">
<!-- Creator: CorelDRAW X7 -->
<svg xmlns="http://www.w3.org/2000/svg" xml:space="preserve" width="535px" height="480px" version="1.1" style="shape-rendering:geometricPrecision; text-rendering:geometricPrecision; image-rendering:optimizeQuality; fill-rule:evenodd; clip-rule:evenodd"
viewBox="0 0 535 480"
 xmlns:xlink="http://www.w3.org/1999/xlink">
 <defs>
  <style type="text/css">
   <![CDATA[
    .fil6 {fill:#FEFEFE}
    .fil5 {fill:black}
    .fil1 {fill:#016316}
    .fil2 {fill:#8C9F33}
    .fil9 {fill:#D89F07}
    .fil3 {fill:#E4A108}
    .fil4 {fill:#EEBC03}
    .fil0 {fill:#F7D915}
    .fil10 {fill:#B78E00;fill-rule:nonzero}
    .fil8 {fill:url(#id0)}
    .fil7 {fill:url(#id1)}
   ]]>
  </style>
  <linearGradient id="id0" gradientUnits="userSpaceOnUse" x1="267.056" y1="239.56" x2="335.288" y2="254.062">
   <stop offset="0" style="stop-opacity:1; stop-color:#ECA400"/>
   <stop offset="0.419608" style="stop-opacity:1; stop-color:#ECA400"/>
   <stop offset="0.231373" style="stop-opacity:1; stop-color:#EDA804"/>
   <stop offset="0.34902" style="stop-opacity:1; stop-color:#F3C627"/>
   <stop offset="0.478431" style="stop-opacity:1; stop-color:#F5CD2E"/>
   <stop offset="0.74902" style="stop-opacity:1; stop-color:#F4C728"/>
   <stop offset="0.901961" style="stop-opacity:1; stop-color:#EDA704"/>
   <stop offset="1" style="stop-opacity:1; stop-color:#ECA400"/>
  </linearGradient>
  <linearGradient id="id1" gradientUnits="userSpaceOnUse" xlink:href="#id0" x1="199.963" y1="239.56" x2="268.193" y2="254.064">
  </linearGradient>
 </defs>
 <g id="Layer_x0020_1">
  <metadata id="CorelCorpID_0Corel-Layer"/>
  <g id="_1933520482544">
   <polygon class="fil0" points="268,0 401,92 535,183 484,332 433,480 268,480 102,480 51,332 0,183 134,92 "/>
   <polygon class="fil1" points="268,22 389,105 511,188 464,323 418,458 268,458 117,458 71,323 24,188 146,105 "/>
   <path class="fil2" d="M175 358c-3,1 -6,2 -8,4 -8,-14 -15,-22 -23,-22 -6,-1 -10,-1 -15,3 -8,5 -16,1 -13,-8 -7,-6 -4,-17 7,-16 6,-8 15,-3 15,7 0,4 3,8 8,10 2,1 2,0 1,-2 -7,-14 -12,-22 -17,-23 -6,-1 -10,-1 -12,1 -10,7 -18,-2 -13,-10 -5,-6 -3,-14 7,-12 2,-9 14,-6 15,3 1,7 -2,9 4,16 2,2 3,1 2,-3 -1,-3 -1,-9 -3,-16 -3,-9 -8,-15 -15,-16 -3,-1 -5,1 -7,2 -6,4 -15,-4 -8,-11 -5,-7 0,-15 10,-10 5,-6 15,-1 12,8 -2,5 -2,9 1,11 1,1 3,3 5,4 -1,-8 -1,-16 0,-22 0,-2 -2,-5 -4,-9 -5,-8 -8,-3 -15,-5 -8,-2 -10,-11 -4,-15 -5,-8 4,-15 12,-8 7,-4 15,2 12,11 -3,6 -6,5 -4,12 0,1 1,3 2,5 1,1 1,1 2,-1 1,-8 2,-14 3,-19 1,-2 0,-5 -1,-7 -2,-3 -3,-5 -4,-7 -2,-3 -5,-5 -9,-6 -6,-1 -7,-11 0,-13 -2,-8 8,-12 14,-5 8,-1 11,8 6,12 -4,4 -6,9 -5,16 1,3 3,3 3,0 1,-6 3,-12 7,-18 1,-2 0,-4 0,-6 -1,-4 -1,-7 -2,-9 0,-4 -2,-6 -5,-7 -8,-3 -6,-13 2,-13 0,-10 14,-10 15,-1 7,0 8,7 4,10 -6,4 -10,8 -10,11 -1,6 -1,8 0,6 6,-7 11,-12 15,-16 1,-2 2,-5 3,-8 0,-7 -2,-10 -7,-13 -7,-5 -5,-16 5,-15 4,-8 14,-6 14,2 8,3 6,10 1,13 -7,3 -11,8 -11,12 0,3 0,3 1,1 6,-6 12,-10 17,-14 1,-1 2,-3 2,-5 0,-6 0,-10 -1,-10 -10,-5 -6,-18 6,-15 5,-10 17,-5 14,5 8,2 5,14 -3,15 -5,0 -6,-1 -9,2 -3,4 -5,5 -3,4 8,-3 15,-7 24,-10 3,-1 4,-5 4,-8 0,-8 12,-9 15,-3 10,-1 11,11 3,14 0,8 -9,10 -12,5 -3,-4 -3,-7 -11,-5 -8,3 -15,7 -24,13 14,1 17,-1 19,-5 3,-6 14,-5 13,3 9,2 7,11 0,12 1,7 -11,7 -13,2 -6,-14 -26,-12 -39,3 -2,3 -2,4 1,4 8,-1 12,-7 15,-12 2,-4 9,-4 11,2 10,-1 11,12 1,12 1,6 -8,9 -11,4 -6,-7 -21,-5 -28,3 -6,6 -9,11 -9,16 6,-2 10,-5 10,-11 2,-8 12,-12 14,-5 11,0 11,9 4,13 2,6 -8,10 -11,6 -6,-6 -17,-3 -24,7 -3,4 -4,10 -5,16 7,-2 9,-6 8,-12 0,-3 0,-5 1,-6 3,-4 9,-5 11,-1 9,-5 15,6 8,11 3,6 -4,13 -11,9 -3,-2 -5,-3 -8,-2 -8,3 -12,8 -13,15 -1,4 -2,8 -3,14 6,-4 8,-7 7,-10 -1,-4 -2,-6 -1,-8 2,-4 4,-5 8,-3 8,-6 16,1 11,9 4,3 2,8 -3,9 -3,2 -6,1 -9,0 -1,-1 -3,-1 -4,0 -6,4 -9,8 -9,12 0,4 0,9 1,15 0,3 2,3 3,0 3,-4 3,-8 1,-11 -4,-7 2,-13 8,-11 9,-7 18,2 12,9 5,2 1,10 -5,9 -6,-1 -9,0 -13,4 -4,4 -6,7 -4,19 2,13 4,17 6,12 2,-6 3,-9 0,-10 -8,-7 -7,-15 1,-16 5,-9 16,-6 16,3 8,1 6,13 -2,14 -5,0 -8,1 -10,5 -3,6 -4,11 -1,18 8,15 11,20 12,15 0,-4 -1,-7 -3,-9 -9,-8 -8,-16 1,-15 4,-12 16,-9 15,1 8,2 7,10 -2,15 -5,2 -8,5 -8,10 -1,3 1,6 4,9 4,4 8,8 12,11z"/>
   <path class="fil3" d="M363 364c2,-4 2,-6 1,-7 2,-3 5,-5 7,-8l0 -1c-11,-1 -13,-17 -5,-26 1,1 1,2 1,4 -1,3 1,6 3,8 4,4 4,9 3,12 0,1 0,1 0,1 2,-3 4,-5 6,-8 -9,0 -13,-15 -8,-25 1,1 1,2 1,4 0,3 2,5 4,7 3,4 5,8 4,12 0,0 0,0 0,0 2,-2 3,-4 5,-7 -1,0 -1,-1 -1,-1 -8,0 -13,-16 -8,-26 1,1 1,3 1,5 0,3 2,5 4,7 3,4 5,7 4,12 0,0 0,1 1,1 1,-2 3,-4 4,-7 -1,-1 -1,-2 -1,-2 -9,0 -14,-15 -10,-25 1,1 1,2 1,4 1,3 2,5 4,7 4,4 6,7 5,11 0,1 1,2 2,3 1,-3 3,-6 4,-9 -1,0 -1,-1 -1,-1 -9,1 -15,-14 -12,-24 1,1 1,2 2,4 0,3 2,5 4,7 4,3 6,6 6,10 0,1 1,2 2,2 1,-3 2,-7 3,-10 0,-1 0,-1 0,-1 -8,3 -16,-11 -15,-22 1,0 1,2 2,4 1,2 3,4 6,6 4,2 7,6 7,10 0,0 0,0 1,1 1,-4 1,-7 2,-10 -1,-1 -1,-1 -1,-1 -8,3 -17,-11 -16,-23 1,1 1,3 2,4 1,3 4,5 6,6 5,3 7,6 8,10 0,1 1,1 1,2 1,-4 1,-7 1,-10 0,-1 1,-1 1,-1 -1,-1 -1,-1 -1,-1 -7,4 -18,-9 -19,-21 2,1 2,2 3,4 2,3 4,4 7,5 4,2 7,5 8,9 1,1 1,1 2,2 0,-4 0,-7 0,-11 -1,0 -2,0 -2,-1 -7,5 -19,-7 -21,-18 2,0 2,2 4,3 1,3 4,4 7,5 4,1 8,4 9,8 1,0 2,1 3,1 -1,-3 -1,-6 -1,-9 0,0 0,-1 -1,-1 -6,6 -20,-5 -23,-17 1,0 2,2 3,3 3,3 5,4 8,4 6,1 9,4 12,8 0,0 0,0 0,0 0,-3 -1,-6 -1,-9 -1,0 -1,0 -1,-1 -7,7 -21,-4 -25,-16 1,1 2,2 4,3 2,3 5,4 8,4 5,1 9,3 12,7 0,0 1,1 1,1 -1,-4 -2,-7 -3,-10 0,-1 0,-1 -1,-1 -5,7 -21,-2 -26,-14 1,1 3,2 4,3 3,2 6,3 9,3 5,0 9,2 12,6 0,0 1,0 2,0 -2,-3 -3,-7 -5,-10l0 0c-4,7 -21,1 -28,-10 1,0 3,1 5,2 3,2 6,2 8,2 6,-1 10,0 14,3 0,0 0,1 0,1 -1,-3 -2,-6 -4,-8 -4,7 -21,1 -28,-10 2,0 3,1 5,2 3,2 6,2 9,2 5,-1 9,0 13,3 0,1 0,1 0,1 -1,-3 -3,-6 -5,-8 -4,6 -21,1 -28,-7 1,0 3,1 5,1 3,2 6,2 9,1 5,-1 9,-1 12,1 -1,-1 -2,-3 -4,-5 0,0 -1,0 -1,0 -4,7 -21,3 -29,-6 2,0 3,1 5,2 3,1 6,1 9,0 5,-1 10,-1 13,2 1,0 1,0 2,0 -2,-2 -4,-5 -7,-7 -1,0 -2,0 -3,0 -3,7 -19,5 -27,-2 1,0 2,0 4,1 3,0 6,0 9,-1 4,-2 9,-1 12,1 1,0 2,0 4,-1 -2,-1 -3,-3 -5,-4 -1,0 -2,0 -2,0 -6,4 -23,4 -27,0 2,-1 3,-1 4,-1 3,1 5,-1 7,-2 4,-2 10,-1 13,1 1,0 3,0 4,0 -2,-2 -4,-4 -7,-5 0,0 -1,0 -2,0 -5,4 -23,5 -26,1 1,0 2,-1 4,-1 3,0 4,-1 6,-3 5,-2 10,-1 14,1 0,0 1,0 3,0 -4,-3 -7,-5 -10,-7 -1,0 -1,0 -2,0 -1,7 -17,8 -25,3 1,-1 2,0 4,0 3,0 5,-1 8,-2 4,-3 8,-3 11,-2 1,0 1,0 2,0 -2,-2 -5,-3 -7,-5 -1,0 -2,1 -2,1 -2,6 -19,7 -27,2 1,-1 2,-1 4,0 3,0 6,-1 8,-2 5,-2 9,-3 13,-1 0,0 1,0 2,-1 -2,-1 -3,-2 -5,-3 0,0 0,0 0,0 -1,0 -1,0 -2,0 -1,0 -2,0 -2,0 -2,4 -16,4 -24,1 1,-1 2,0 4,0 3,0 5,0 7,-1 4,-1 8,-2 11,-1 0,0 1,0 2,0 -1,-1 -2,-1 -3,-1 -4,1 -9,0 -13,-4 -2,-1 -5,-3 -8,-3 -2,0 -4,0 -5,0 10,-5 27,-3 28,6 1,0 2,0 4,1 0,0 0,0 0,0 0,0 1,-1 1,-1 0,-1 -1,-1 -1,-1 -3,-1 -5,-4 -6,-9 0,-3 -1,-5 -3,-7 -1,-1 -2,-1 -3,-2 11,0 20,10 15,18 0,0 0,0 0,1 0,0 1,0 2,0 1,1 3,2 4,3 0,-1 0,-1 0,-1 -3,-2 -4,-5 -3,-10 1,-2 1,-4 -1,-6 -1,-1 -1,-2 -1,-3 9,3 14,14 7,20 0,0 0,1 0,1 3,2 5,4 8,6 0,-1 0,-2 0,-2 -3,-2 -4,-6 -2,-11 0,-2 1,-5 -1,-7 0,-1 -1,-2 -1,-3 9,4 13,17 5,22 1,0 1,1 1,2 2,2 5,4 7,6 0,-1 0,-1 0,-1 -2,-3 -3,-7 -1,-12 1,-3 1,-6 0,-8 -1,-2 -1,-3 -1,-4 8,5 11,20 4,25 0,0 0,1 0,1 2,2 4,4 6,6 0,-2 1,-2 0,-3 -2,-3 -2,-7 0,-11 1,-3 2,-5 1,-8 0,-2 -1,-3 -1,-4 9,6 11,21 2,25 0,0 0,1 0,2 2,2 4,4 6,6 0,0 0,-1 0,-1 -3,-3 -2,-7 1,-12 1,-3 2,-6 1,-8 0,-2 -1,-3 0,-5 9,7 10,23 0,27 0,0 0,1 0,1 2,3 4,5 7,8 0,0 0,0 0,-1 -3,-3 -2,-7 1,-12 2,-3 3,-6 2,-9 0,-1 -1,-3 0,-4 8,7 9,23 -2,27 0,0 0,1 0,1 2,3 4,5 6,8 0,-1 0,-2 0,-2 -2,-3 -1,-7 2,-12 2,-2 4,-5 3,-8 0,-1 -1,-3 0,-4 8,7 7,23 -3,26 0,0 0,1 -1,2 1,1 2,2 2,3 1,2 2,3 3,5 1,-1 1,-1 1,-2 -1,-3 0,-7 4,-10 2,-2 4,-4 4,-7 0,-2 0,-3 0,-4 7,8 3,22 -7,23 0,1 0,1 -1,2 2,3 3,6 5,9 0,-1 1,-2 1,-2 -1,-4 0,-7 4,-10 3,-2 4,-4 4,-7 0,-1 0,-3 1,-4 6,9 2,22 -8,23 0,0 -1,1 -1,2 1,3 2,7 3,10 1,-1 1,-2 2,-2 -1,-4 0,-7 5,-10 2,-2 4,-4 4,-6 0,-2 0,-3 1,-4 5,9 0,22 -10,22 0,0 0,1 -1,2 1,3 2,6 3,9 0,0 1,-1 1,-1 -1,-4 1,-7 6,-10 2,-1 4,-3 5,-5 0,-2 0,-3 1,-4 4,9 -2,22 -11,21 -1,0 -1,1 -2,2 1,2 1,5 2,8 0,0 0,-1 0,-1 1,-3 3,-6 8,-8 2,-1 4,-2 5,-5 1,-1 1,-3 2,-3 3,10 -5,21 -14,18 -1,1 -1,1 -1,1 0,4 1,8 1,13 1,-1 1,-1 1,-2 0,-3 3,-6 8,-8 3,-1 5,-3 6,-5 1,-2 1,-3 2,-4 3,10 -5,22 -15,19 -1,1 -1,2 -2,2 0,4 0,8 0,12 1,-1 1,-1 2,-2 0,-3 2,-6 8,-7 2,-1 5,-2 6,-5 0,-1 1,-2 2,-3 3,9 -6,20 -16,17 -1,1 -1,1 -3,2 0,3 0,6 -1,9 1,0 2,-1 2,-1 1,-3 4,-6 9,-6 3,-1 5,-2 7,-4 1,-1 1,-2 2,-2 1,9 -9,18 -18,14 0,0 -1,1 -2,1 -1,3 -1,6 -2,9 1,0 2,-1 2,-1 2,-4 5,-5 10,-5 3,0 5,-1 7,-3 1,-1 2,-2 3,-3 -1,11 -13,20 -20,13 -1,1 -2,1 -3,2 -1,3 -2,7 -3,10 0,0 1,0 1,0 2,-4 5,-6 11,-6 3,0 6,-1 8,-3 1,-1 2,-2 3,-3 -1,12 -14,21 -22,14 -1,0 -2,1 -2,1 -1,2 -2,5 -4,7 1,0 1,0 1,0 2,-3 6,-5 11,-4 3,1 6,0 9,-1 1,-2 2,-3 4,-3 -3,11 -18,18 -25,11 0,0 -1,0 -1,0 -1,2 -2,5 -4,7 1,0 1,0 1,0 2,-3 6,-4 12,-3 3,1 5,1 8,0 1,-1 2,-2 4,-2 -4,11 -19,16 -25,7 0,0 -1,0 -1,0 -1,3 -3,6 -5,8 1,0 1,0 2,0 2,-3 6,-4 12,-2 3,0 6,1 8,-1 2,-1 3,-2 4,-2 -4,11 -19,16 -25,7 -1,0 -2,0 -2,1 -2,1 -3,3 -4,4 3,-1 6,0 10,1 3,2 6,2 9,1 2,-1 3,-2 5,-1 -6,10 -22,14 -29,5 -3,4 -7,8 -11,12z"/>
   <polygon class="fil4" points="268,82 276,107 303,107 281,122 290,147 268,132 245,147 254,122 232,107 259,107 "/>
   <path class="fil5" d="M268 22l121 83 122 83 -47 135 -46 135 -150 0 -151 0 -46 -135 -47 -135 122 -83 122 -83zm-149 355c-10,2 -17,7 -20,16 13,-2 25,0 34,6 12,7 19,8 22,2 2,-4 -1,-9 -10,-16 -4,-4 -4,-9 1,-13l12 -9c-23,-10 -43,-13 -61,-7 10,6 18,13 22,21zm297 0c10,2 17,7 20,16 -13,-2 -25,0 -34,6 -12,7 -19,8 -22,2 -2,-4 1,-9 10,-16 4,-4 4,-9 -1,-13l-11 -9c22,-10 42,-13 60,-7 -10,6 -17,13 -22,21zm-49 16l11 11c2,2 5,3 9,3 0,0 0,0 1,0 4,0 9,-2 15,-6 4,-3 10,-5 15,-6 6,-1 12,-1 18,0l2 0 -22 61 -148 0 -149 0 -22 -61 2 0c7,-1 13,-1 18,0 6,1 11,3 15,6 6,4 11,6 15,6 1,0 1,0 2,0 3,0 6,-1 8,-3l11 -11c10,7 20,12 31,17 20,8 44,13 69,13 24,0 48,-5 68,-13 11,-5 22,-10 31,-17zm71 0l0 -1c-2,-5 -4,-8 -8,-11 -3,-2 -7,-4 -11,-5 2,-3 4,-6 7,-9 4,-3 8,-6 13,-9l4 -2 -4 -2c-9,-3 -19,-3 -29,-2 -11,1 -22,4 -33,9l-1 1 -20 -17c0,-1 -5,-5 -10,0 -11,9 -23,16 -36,21 -13,5 -28,7 -42,7 -15,0 -29,-2 -42,-7 -14,-5 -26,-12 -37,-21 -5,-5 -9,-1 -10,0l-20 17 -1 -1c-11,-5 -22,-8 -32,-9 -11,-1 -20,-1 -30,2l-4 2 4 2c5,3 9,6 13,9 3,3 5,6 7,9 -4,1 -8,3 -11,5 -3,3 -6,6 -8,11l0 1 -24 -70 -46 -134 120 -82 121 -83 120 83 120 82 -46 134 -24 70zm-52 -20c-24,28 -68,48 -118,48 -51,0 -94,-19 -119,-48l31 -26c0,0 3,-4 8,0 21,18 49,28 80,28 30,0 58,-11 79,-28 5,-5 8,0 8,0l31 26z"/>
   <path class="fil6" d="M389 372l-11 -9c22,-10 42,-13 60,-7 -10,6 -17,13 -22,21 10,2 17,7 20,16 -13,-2 -25,0 -34,6 -12,7 -19,8 -22,2 -2,-4 1,-9 10,-16 4,-4 4,-9 -1,-13zm-55 -96l-55 28 0 -1 54 -28 0 -1 -65 34 0 0 -1 0 -65 -34 0 1 54 28 0 1 -55 -28 -3 5 58 32 1 0 -1 1 -34 19 6 7 39 -22 1 0 0 0 39 22 6 -7 -34 -19 -1 -1 1 0 58 -32 -3 -5zm-56 29l-7 4 0 -1 7 -4 0 1zm-21 -1l7 4 0 1 -7 -4 0 -1zm-142 21c-1,4 2,7 4,7 2,1 2,1 1,2 -2,2 -1,7 3,7 5,1 6,-3 5,-5 -2,-1 -1,-2 0,-1 2,1 5,1 6,-2 1,-3 0,-4 -4,-4 -2,-1 -3,-3 -1,-3 3,1 5,1 5,-3 1,-4 -4,-5 -6,-4 -2,0 -3,1 -3,2 0,2 -1,2 -2,1 -4,-1 -7,1 -8,3zm124 -192c-1,-4 -4,-4 -6,-3 -1,1 -2,1 -2,-1 1,-2 -3,-4 -5,-2 -4,2 -3,5 -1,5 2,0 2,1 1,1 -2,0 -5,2 -4,4 1,2 3,3 6,1 1,-1 3,0 2,1 -3,1 -4,2 -2,5 2,3 6,1 7,-1 0,-1 1,-2 0,-3 -1,-1 0,-2 1,-2 3,-1 4,-3 3,-5zm-14 25c0,-4 -3,-5 -5,-5 -1,0 -2,0 -2,-1 2,-2 -1,-5 -4,-5 -4,1 -4,5 -2,5 1,1 1,2 0,2 -2,-1 -5,0 -4,2 0,3 1,4 5,3 1,-1 3,1 1,1 -3,1 -4,2 -3,5 1,3 5,2 6,1 1,-1 2,-2 2,-3 -1,-1 0,-1 1,-1 4,0 5,-2 5,-4zm-25 -37c-4,-2 -7,1 -8,4 0,1 -1,1 -2,0 -1,-2 -7,-1 -7,2 0,5 4,6 5,5 2,-1 3,-1 2,0 -2,2 -2,5 1,6 4,1 5,0 5,-4 1,-2 3,-2 3,0 -1,3 0,4 4,5 4,0 5,-4 4,-6 -1,-1 -2,-2 -3,-2 -1,-1 -2,-2 -1,-3 2,-3 0,-6 -3,-7zm-29 14c-5,-1 -6,2 -7,5 0,1 0,2 -1,0 -2,-1 -7,0 -7,4 1,4 5,5 6,4 1,-2 2,-1 1,0 -1,1 0,5 2,5 4,0 5,-1 4,-5 0,-1 3,-2 3,0 -1,3 0,4 4,4 4,0 4,-4 2,-7 0,-1 -1,-1 -2,-1 -2,0 -2,-1 -2,-3 1,-3 -1,-5 -3,-6zm31 33c0,-4 -4,-4 -6,-3 -1,0 -2,0 -1,-1 0,-2 -2,-5 -5,-3 -4,1 -3,4 -2,5 2,0 2,1 1,1 -2,0 -5,1 -4,3 1,3 2,3 6,2 1,-1 3,0 1,1 -3,1 -4,2 -2,4 2,3 5,2 7,0 0,-1 1,-2 0,-3 0,-1 0,-1 2,-1 3,-1 4,-3 3,-5zm-58 -10c-4,0 -5,4 -4,6 0,1 0,2 -2,2 -2,-1 -6,2 -4,5 1,4 5,3 6,2 0,-2 1,-2 1,-1 0,2 1,5 4,5 3,-1 4,-2 2,-6 0,-2 1,-3 2,-2 1,3 2,5 5,3 4,-1 3,-5 0,-7 -1,-1 -2,-1 -3,-1 -1,1 -2,0 -2,-1 0,-4 -3,-5 -5,-5zm36 30c-1,-4 -5,-4 -7,-3 -1,1 -2,1 -2,-1 1,-2 -3,-4 -5,-2 -4,2 -2,5 -1,5 2,1 2,1 1,2 -2,0 -4,2 -3,4 1,2 3,3 6,1 1,-1 3,0 1,1 -2,1 -3,2 -1,5 2,3 5,1 6,-1 1,-2 1,-3 1,-3 -1,-1 -1,-2 1,-3 3,-1 3,-3 3,-5zm-57 0c-4,1 -4,5 -3,7 1,1 1,2 -1,2 -3,0 -6,3 -3,7 2,4 6,2 6,0 1,-2 2,-2 2,-1 0,3 2,5 5,4 3,-1 3,-3 0,-6 -1,-2 1,-4 2,-3 2,4 3,4 6,2 3,-2 1,-6 -1,-7 -2,-1 -3,-1 -4,-1 -1,1 -2,1 -2,-1 -1,-3 -5,-4 -7,-3zm43 20c-3,-4 -6,-2 -8,-1 0,1 -1,2 -1,0 -1,-2 -5,-4 -7,-1 -2,4 0,6 2,6 2,-1 2,0 1,1 -2,0 -4,3 -2,5 2,2 4,2 6,-1 1,-2 3,-1 2,0 -2,2 -3,4 0,6 3,2 6,-1 6,-4 0,-1 0,-2 -1,-3 -1,0 -1,-1 1,-2 2,-2 2,-5 1,-6zm-58 12c-4,3 -2,7 0,9 1,1 1,2 0,2 -3,1 -4,6 -1,8 4,3 7,0 7,-2 -1,-3 0,-3 1,-2 1,2 4,4 6,2 2,-3 2,-4 -2,-7 -1,-1 -1,-4 1,-2 3,2 4,2 6,-1 2,-4 -1,-7 -4,-7 -2,0 -3,0 -4,1 0,1 -1,1 -2,0 -3,-3 -6,-2 -8,-1zm45 11c-3,-2 -6,0 -7,2 0,1 -1,2 -2,1 -1,-2 -5,-2 -6,1 -1,4 2,6 3,5 2,-1 2,-1 1,0 -1,1 -2,4 1,6 2,1 3,0 4,-3 1,-2 3,-2 3,-1 -2,3 -2,5 2,6 3,1 5,-3 4,-5 0,-2 -1,-3 -2,-3 -1,0 -1,-1 0,-2 2,-3 1,-5 -1,-7zm0 24c-4,-3 -7,0 -8,2 0,1 -1,1 -1,0 -1,-2 -6,-2 -7,1 -1,4 2,6 3,5 2,-1 3,0 2,1 -2,1 -3,4 0,5 2,1 4,0 5,-3 1,-2 3,-2 2,0 -1,3 -1,4 2,5 4,1 6,-3 5,-5 0,-1 -1,-2 -2,-3 -1,0 -1,-1 0,-2 2,-3 1,-5 -1,-6zm-52 1c-3,3 -1,7 2,8 1,1 1,1 -1,2 -2,1 -3,6 1,7 4,2 6,-1 6,-3 -1,-1 0,-2 0,-1 1,2 4,3 6,1 2,-3 1,-4 -2,-6 -2,-1 -2,-3 0,-2 3,1 4,1 6,-2 1,-4 -2,-6 -5,-6 -1,0 -2,1 -3,2 0,1 -1,1 -3,0 -2,-3 -5,-2 -7,0zm49 21c-5,0 -6,3 -6,6 0,1 0,2 -2,1 -2,-1 -6,1 -5,4 0,5 4,6 5,4 1,-2 2,-1 2,0 -1,2 0,5 3,5 3,0 4,-1 3,-5 0,-2 2,-3 2,-2 0,4 1,5 5,5 4,-1 4,-6 2,-8 -1,-1 -2,-2 -3,-1 -1,0 -2,-1 -2,-3 1,-3 -2,-5 -4,-6zm-45 16c-3,4 0,7 3,8 1,1 2,2 0,3 -2,1 -2,6 2,7 5,2 7,-2 5,-4 -1,-2 0,-2 1,-1 2,1 5,2 7,-1 1,-3 0,-4 -4,-6 -2,0 -2,-3 0,-2 3,1 5,1 6,-3 1,-4 -3,-6 -6,-5 -2,0 -3,1 -3,2 -1,1 -2,2 -3,1 -4,-2 -7,-1 -8,1zm57 15c-4,-1 -5,2 -5,5 0,1 -1,2 -2,1 -2,-2 -5,0 -5,3 1,5 4,5 5,3 1,-1 2,-1 2,0 -1,2 0,5 2,5 3,0 4,-1 3,-5 0,-1 2,-2 2,-1 0,3 1,5 4,4 4,-1 4,-5 2,-7 -1,-1 -2,-1 -3,-1 -1,0 -1,-1 -1,-2 0,-3 -2,-5 -4,-5zm-16 64l11 -9c-22,-10 -42,-13 -60,-7 10,6 17,13 22,21 -10,2 -17,7 -20,16 13,-2 25,0 34,6 12,7 19,8 22,2 2,-4 -1,-9 -10,-16 -4,-4 -4,-9 1,-13zm240 1c-24,28 -68,48 -119,48 -50,0 -93,-19 -118,-48l31 -26c0,0 3,-4 8,0 21,18 49,28 79,28 31,0 59,-11 80,-28 5,-5 8,0 8,0l31 26z"/>
   <path class="fil7" d="M201 260c26,0 47,12 67,29l0 -67c-15,-10 -31,-16 -48,-17l-19 55z"/>
   <path class="fil8" d="M335 260c-27,0 -48,12 -67,29l0 -67c14,-10 30,-16 47,-17l20 55z"/>
   <path class="fil9" d="M201 260l1 13c26,2 45,11 57,27l17 0c12,-16 32,-25 58,-27l1 -13c-27,0 -48,12 -67,29 -20,-17 -41,-29 -67,-29z"/>
   <path class="fil5" d="M236 222c-1,0 -2,0 -3,1 1,0 1,0 1,0 1,0 1,0 1,0 1,1 1,1 2,0 1,0 1,1 1,1 1,1 2,1 3,1 1,0 1,0 2,0 0,1 1,2 2,2 1,0 1,0 1,0 1,1 2,1 4,1 1,0 2,1 2,2 1,1 2,1 4,0 -2,0 -3,-1 -4,-1 0,-2 -1,-2 -3,-1 -1,0 -2,-1 -2,-2 -1,-1 -2,-1 -3,-1 -1,0 -1,0 -1,-1 0,-1 -1,-1 -3,0 -1,0 -1,0 -1,-1 -1,-1 -2,-1 -3,0 0,0 0,0 0,-1zm-6 17c0,-1 -1,0 -2,0 0,0 1,0 1,0 0,0 1,0 1,1 0,0 1,0 2,0 1,0 1,0 1,1 1,1 2,1 3,0 1,0 2,0 2,1 0,1 1,1 3,1 0,0 0,1 1,1 0,1 2,1 3,1 1,0 2,0 3,1 0,1 2,1 3,1 -1,0 -3,-1 -3,-2 -1,-1 -2,-1 -3,-1 -1,1 -2,0 -3,-1 0,-1 -1,-1 -3,-1 0,0 -1,-1 -1,-1 0,-1 -1,-1 -3,-1 -1,0 -1,0 -1,0 -1,-1 -2,-1 -3,-1 0,1 0,0 -1,0zm-3 8c-1,-1 -2,-1 -3,0 1,0 1,0 1,0 1,0 1,0 2,0 0,1 1,1 2,1 1,-1 1,0 1,0 1,1 2,1 4,1 1,0 1,0 2,1 0,1 1,1 3,1 0,0 1,0 1,1 1,1 2,1 4,0 1,0 2,1 3,2 1,1 2,1 4,0 -2,0 -3,0 -4,-1 -1,-2 -2,-2 -3,-1 -2,0 -3,-1 -4,-2 0,-1 -1,-1 -3,-1 -1,0 -1,0 -1,-1 -1,0 -2,-1 -4,0 0,0 -1,0 -1,-1 -1,-1 -2,0 -3,0 0,0 -1,0 -1,0zm6 -17c0,0 -1,0 -2,1 0,0 1,0 1,0 0,0 1,0 1,0 0,1 1,1 2,0 1,0 1,1 1,1 1,1 2,1 3,1 1,0 1,0 2,0 0,1 1,2 2,2 1,0 1,0 1,0 1,1 2,1 3,1 2,0 2,0 3,1 1,1 2,1 3,1 -1,0 -3,-1 -3,-1 -1,-2 -1,-2 -3,-2 -1,1 -2,0 -3,-1 0,-1 -1,-1 -2,-1 -1,0 -1,0 -1,-1 -1,-1 -2,-1 -3,0 -1,0 -1,-1 -1,-1 -1,-1 -2,-1 -3,0 0,0 0,0 -1,-1z"/>
   <path class="fil5" d="M300 222c0,0 1,0 2,1 0,0 -1,0 -1,0 0,0 -1,0 -1,0 0,1 -1,1 -2,0 -1,0 -1,1 -1,1 0,1 -2,1 -3,1 -1,0 -1,0 -1,0 -1,1 -2,2 -3,2 -1,0 -1,0 -1,0 -1,1 -2,1 -3,1 -2,0 -2,1 -3,2 0,1 -2,1 -3,0 1,0 3,-1 3,-1 1,-2 1,-2 3,-1 1,0 2,-1 3,-2 0,-1 1,-1 2,-1 1,0 1,0 1,-1 1,-1 2,-1 3,0 1,0 1,0 2,-1 0,-1 1,-1 2,0 0,0 0,0 1,-1zm5 17c1,-1 1,0 2,0 0,0 0,0 -1,0 0,0 0,0 -1,1 0,0 -1,0 -2,0 -1,0 -1,0 -1,1 -1,1 -2,1 -3,0 -1,0 -1,0 -2,1 0,1 -1,1 -3,1 0,0 0,1 0,1 -1,1 -2,1 -4,1 -1,0 -2,0 -3,1 0,1 -2,1 -3,1 2,0 3,-1 3,-2 1,-1 2,-1 3,-1 2,1 3,0 3,-1 1,-1 2,-1 3,-1 1,0 1,-1 1,-1 0,-1 2,-1 3,-1 1,0 1,0 1,0 1,-1 2,-1 3,-1 0,1 0,0 1,0zm3 8c1,-1 2,-1 3,0 -1,0 -1,0 -1,0 -1,0 -1,0 -1,0 -1,1 -2,1 -3,1 -1,-1 -1,0 -1,0 -1,1 -2,1 -4,1 0,0 -1,0 -1,1 -1,1 -2,1 -4,1 0,0 0,0 -1,1 -1,1 -2,1 -4,0 -1,0 -2,1 -3,2 -1,1 -2,1 -4,0 2,0 4,0 4,-1 1,-2 2,-2 4,-1 1,0 2,-1 3,-2 0,-1 2,-1 3,-1 1,0 1,0 1,-1 1,0 2,-1 4,0 1,0 1,0 1,-1 1,-1 2,0 3,0 1,0 1,0 1,0zm-6 -17c1,0 1,0 2,1 0,0 -1,0 -1,0 0,0 0,0 -1,0 0,1 -1,1 -2,0 -1,0 -1,1 -1,1 0,1 -1,1 -3,1 0,0 -1,0 -1,0 -1,1 -2,2 -3,2 0,0 -1,0 -1,0 -1,1 -2,1 -3,1 -1,0 -2,0 -3,1 0,1 -2,1 -3,1 2,0 3,-1 3,-1 1,-2 2,-2 3,-2 1,1 2,0 3,-1 0,-1 1,-1 3,-1 0,0 0,0 0,-1 1,-1 2,-1 3,0 1,0 1,-1 2,-1 0,-1 1,-1 2,0 0,0 1,0 1,-1z"/>
   <path class="fil10" d="M221 254c7,1 14,2 20,4 6,2 11,5 16,9l2 -39c-4,-3 -8,-6 -12,-8 -5,-2 -9,-3 -14,-4l0 0 0 0 0 0c-2,0 -3,0 -4,1l-9 31 0 0c-1,1 -1,2 -1,2 0,1 0,2 0,3 1,0 1,1 2,1 0,0 0,0 0,0zm20 5c-6,-2 -13,-4 -20,-4 0,0 0,0 -1,0 0,-1 -1,-1 -1,-2 -1,-1 -1,-2 -1,-3 0,-1 1,-1 1,-2l0 0 10 -31c0,-2 2,-2 4,-1l0 0c5,0 10,2 14,4 5,2 9,4 13,7l0 0 0 0 -2 41 0 0 -1 0c-5,-4 -10,-7 -16,-9z"/>
   <path class="fil10" d="M314 254c-7,1 -14,2 -20,4 -5,2 -11,5 -16,9l-2 -39c4,-3 8,-6 12,-8 5,-2 9,-3 14,-4l0 0 1 0 0 0c1,0 3,0 3,1l10 31 0 0c0,1 0,2 0,2 0,1 0,2 0,3 0,0 -1,1 -1,1 -1,0 -1,0 -1,0zm-19 5c6,-2 12,-4 19,-4 0,0 1,0 1,0 1,-1 1,-1 2,-2 0,-1 0,-2 0,-3 0,-1 0,-1 -1,-2l0 0 -9 -31c-1,-2 -3,-2 -4,-1l-1 0c-5,0 -9,2 -14,4 -4,2 -9,4 -13,7l0 0 0 0 2 41 0 0 1 0c5,-4 11,-7 17,-9z"/>
   <path class="fil5" d="M167 378l-5 -4 14 -19 5 4 -14 19zm35 -117l1 11c12,1 24,4 33,8 10,5 18,11 24,19l15 0c7,-8 15,-14 24,-19 10,-4 21,-7 34,-8l1 -11c-13,0 -25,3 -35,8 -11,5 -21,12 -31,20l0 1 -1 -1c-10,-8 -20,-15 -31,-20 -10,-5 -22,-8 -34,-8zm27 38l-31 -18 -1 0 0 0 4 -8 1 0 -1 -13 19 -55c17,1 33,7 48,17 14,-10 30,-16 47,-17l20 55 -1 13 -1 0 1 0 4 8 0 0 -1 0 -31 18 9 34 -1 0 -6 8 -1 0 0 0 -39 -22 -40 22 0 0 -1 0 -6 -8 -1 0 9 -34zm38 -77l-1 0c-7,-4 -14,-8 -21,-11 -8,-3 -16,-5 -24,-5l-19 54 0 0c25,1 46,12 65,28l0 -65 0 -1zm67 38l-1 0 -19 -54c-8,0 -16,2 -23,5 -8,3 -15,7 -22,11l0 0 -1 1 0 65c19,-16 40,-27 66,-28zm0 16l-55 28 0 -1 54 -28 0 -1 -65 34 0 0 -1 0 -65 -34 0 1 54 28 0 1 -55 -28 -3 5 58 32 1 0 -1 1 -34 19 6 7 39 -22 1 0 0 0 39 22 6 -7 -34 -19 -1 -1 1 0 58 -32 -3 -5zm-56 29l-7 4 0 -1 7 -4 0 1zm-21 -1l7 4 0 1 -7 -4 0 -1zm-75 84l-6 -4 3 -9 -5 7 -5 -3 12 -20 6 3 -4 7 6 -5 5 3 -9 7 -3 14zm16 8l-6 -3 5 -10 -1 -1 -5 10 -6 -3 10 -21 6 3 -4 8 2 1 4 -8 6 2 -11 22zm15 6l-11 -5 8 -22 6 2 -7 20 5 2 -1 3zm19 4l-7 -1 1 -6 -3 -1 -2 6 -7 -2 10 -22 9 2 -1 24zm-6 -11l1 -7 -3 7 2 0zm9 3l5 0 0 6c0,0 0,1 1,1 1,0 1,0 1,-1l0 -3c1,-1 0,-2 -1,-3 -3,-3 -4,-4 -5,-5 0,-1 -1,-2 0,-3l0 -2c0,-3 3,-4 8,-4 4,1 7,3 6,5l0 4 -6 0 0 -5c0,0 0,0 -1,-1 0,0 -1,1 -1,2l0 1c0,1 0,2 2,4 2,2 4,4 4,5 1,0 1,1 1,2l0 3c-1,4 -4,5 -9,4 -4,-1 -7,-2 -6,-5l1 -5zm22 12l1 -24 7 0c2,0 4,1 5,1 1,1 2,2 2,4l0 3c0,1 -2,3 -4,3 3,1 4,2 4,4l0 4c0,2 -1,3 -2,4 -2,1 -3,1 -5,1l-8 0zm9 -16l0 -4c0,0 -1,-1 -2,-1l0 7c1,0 2,-1 2,-2zm-1 12l0 -6c1,-1 0,-2 -1,-2l-1 9c2,0 2,-1 2,-1zm21 2l-12 1 -2 -23 12 -1 0 3 -6 0 1 7 5 -1 1 3 -6 1 1 8 6 -1 0 3zm19 -3l-6 1c-1,0 -2,-2 -2,-5l0 0 -1 -2c0,-2 0,-3 0,-3 0,-1 -1,-1 -2,-1l2 12 -6 1 -5 -23 8 -2c1,0 3,0 5,0 1,0 2,1 2,3l1 3c0,1 -1,3 -3,4 2,0 4,1 4,3l1 3c1,3 1,5 2,6zm-10 -14l-1 -4c0,-1 -1,-1 -2,-1l1 7c1,-1 2,-1 2,-2zm29 8l-7 2 -3 -6 -2 1 1 6 -7 2 -2 -24 8 -2 12 21zm-11 -7l-3 -6 1 7 2 -1zm32 -3l-5 2 -6 -12 3 14 -4 2 -9 -11 6 12 -5 2 -10 -21 7 -4 8 10 -3 -12 8 -4 10 22zm17 -11l-5 3 -5 -4 -2 1 2 6 -5 3 -9 -22 8 -5 16 18zm-12 -4l-4 -6 3 7 1 -1zm23 -5l-10 8 -14 -19 5 -4 13 16 4 -3 2 2z"/>
  </g>
 </g>
</svg>
